<svg width="1920" height="400" viewBox="0 0 1920 400" xmlns="http://www.w3.org/2000/svg">
  <defs>
    <linearGradient id="bgGrad" x1="0%" y1="0%" x2="100%" y2="100%">
      <stop offset="0%" style="stop-color:#0066CC;stop-opacity:1" />
      <stop offset="50%" style="stop-color:#DC143C;stop-opacity:1" />
      <stop offset="100%" style="stop-color:#0066CC;stop-opacity:1" />
    </linearGradient>
    <pattern id="grid" width="50" height="50" patternUnits="userSpaceOnUse">
      <path d="M 50 0 L 0 0 0 50" fill="none" stroke="rgba(255,255,255,0.1)" stroke-width="1"/>
    </pattern>
  </defs>
  
  <!-- Background -->
  <rect width="1920" height="400" fill="url(#bgGrad)"/>
  <rect width="1920" height="400" fill="url(#grid)"/>
  
  <!-- Network nodes and connections -->
  <g opacity="0.3">
    <circle cx="200" cy="100" r="8" fill="white"/>
    <circle cx="400" cy="150" r="6" fill="white"/>
    <circle cx="600" cy="80" r="7" fill="white"/>
    <circle cx="800" cy="180" r="6" fill="white"/>
    <circle cx="1000" cy="120" r="8" fill="white"/>
    <circle cx="1200" cy="160" r="7" fill="white"/>
    <circle cx="1400" cy="90" r="6" fill="white"/>
    <circle cx="1600" cy="140" r="7" fill="white"/>
    <circle cx="1800" cy="110" r="6" fill="white"/>
    
    <line x1="200" y1="100" x2="400" y2="150" stroke="white" stroke-width="1"/>
    <line x1="400" y1="150" x2="600" y2="80" stroke="white" stroke-width="1"/>
    <line x1="600" y1="80" x2="800" y2="180" stroke="white" stroke-width="1"/>
    <line x1="800" y1="180" x2="1000" y2="120" stroke="white" stroke-width="1"/>
    <line x1="1000" y1="120" x2="1200" y2="160" stroke="white" stroke-width="1"/>
    <line x1="1200" y1="160" x2="1400" y2="90" stroke="white" stroke-width="1"/>
    <line x1="1400" y1="90" x2="1600" y2="140" stroke="white" stroke-width="1"/>
    <line x1="1600" y1="140" x2="1800" y2="110" stroke="white" stroke-width="1"/>
  </g>
  
  <!-- WiFi signals -->
  <g opacity="0.4">
    <path d="M 960 250 Q 920 210 880 250" stroke="white" stroke-width="4" fill="none"/>
    <path d="M 960 250 Q 930 230 900 250" stroke="white" stroke-width="4" fill="none"/>
    <path d="M 960 250 Q 940 240 920 250" stroke="white" stroke-width="4" fill="none"/>
    <path d="M 960 250 Q 1000 210 1040 250" stroke="white" stroke-width="4" fill="none"/>
    <path d="M 960 250 Q 990 230 1020 250" stroke="white" stroke-width="4" fill="none"/>
    <path d="M 960 250 Q 980 240 1000 250" stroke="white" stroke-width="4" fill="none"/>
  </g>
  
  <!-- Center text -->
  <text x="960" y="200" font-family="Montserrat, Arial, sans-serif" font-size="72" font-weight="900" fill="white" text-anchor="middle" opacity="0.9">
    COMRADES WiFi
  </text>
  <text x="960" y="250" font-family="Poppins, Arial, sans-serif" font-size="32" font-weight="600" fill="white" text-anchor="middle" opacity="0.85">
    Lightning-Fast Internet Across Kenya
  </text>
  <text x="960" y="290" font-family="Poppins, Arial, sans-serif" font-size="24" font-weight="400" fill="white" text-anchor="middle" opacity="0.8">
    📞 +254 700 123 456  •  Plans from KSh 999/month
  </text>
  
  <!-- Decorative elements -->
  <circle cx="150" cy="300" r="40" fill="none" stroke="white" stroke-width="2" opacity="0.3"/>
  <circle cx="150" cy="300" r="30" fill="none" stroke="white" stroke-width="2" opacity="0.3"/>
  <circle cx="1770" cy="300" r="40" fill="none" stroke="white" stroke-width="2" opacity="0.3"/>
  <circle cx="1770" cy="300" r="30" fill="none" stroke="white" stroke-width="2" opacity="0.3"/>
</svg>
