<svg width="200" height="200" viewBox="0 0 200 200" xmlns="http://www.w3.org/2000/svg">
  <defs>
    <linearGradient id="grad4" x1="0%" y1="0%" x2="100%" y2="100%">
      <stop offset="0%" style="stop-color:#E0E0E0;stop-opacity:1" />
      <stop offset="100%" style="stop-color:#CCCCCC;stop-opacity:1" />
    </linearGradient>
  </defs>
  <circle cx="100" cy="100" r="95" fill="url(#grad4)" />
  <g transform="translate(100, 100)">
    <!-- Crown -->
    <path d="M -40,-20 L -35,-5 L -25,-15 L -15,0 L 0,-15 L 15,0 L 25,-15 L 35,-5 L 40,-20 L 35,-10 L 30,-25 L 20,-10 L 10,-25 L 0,-10 L -10,-25 L -20,-10 L -30,-25 L -35,-10 Z" fill="#FFD700" stroke="#FF8C00" stroke-width="2"/>
    <!-- Crown Jewels -->
    <circle cx="-20" cy="-15" r="3" fill="#FF0000"/>
    <circle cx="0" cy="-15" r="3" fill="#00FF00"/>
    <circle cx="20" cy="-15" r="3" fill="#0000FF"/>
    <!-- Crown Base -->
    <rect x="-40" y="-5" width="80" height="8" rx="2" fill="#FFD700" stroke="#FF8C00" stroke-width="2"/>
    <!-- WiFi Tower -->
    <rect x="-8" y="5" width="16" height="35" rx="2" fill="#666"/>
    <rect x="-12" y="10" width="24" height="4" fill="#999"/>
    <rect x="-12" y="20" width="24" height="4" fill="#999"/>
    <rect x="-12" y="30" width="24" height="4" fill="#999"/>
    <!-- Signal Waves -->
    <path d="M -30,15 Q -20,5 -10,15" stroke="#4CAF50" stroke-width="2.5" fill="none"/>
    <path d="M -40,20 Q -20,0 0,20" stroke="#4CAF50" stroke-width="2.5" fill="none"/>
    <path d="M 30,15 Q 20,5 10,15" stroke="#4CAF50" stroke-width="2.5" fill="none"/>
    <path d="M 40,20 Q 20,0 0,20" stroke="#4CAF50" stroke-width="2.5" fill="none"/>
  </g>
  <text x="100" y="175" font-family="Arial, sans-serif" font-size="18" font-weight="bold" fill="#333" text-anchor="middle">PREMIUM</text>
</svg>
